<svg id="Layer_1" data-name="Layer 1" xmlns="http://www.w3.org/2000/svg" viewBox="0 0 312.77315 231.73071"><defs><style>.cls-1{fill:#000f4f;}.cls-2{fill:#fff;}</style></defs><title>logo-white-bluebcg-dana</title><rect class="cls-1" width="312.77315" height="231.73071"/><polygon id="origami" class="cls-2" points="248.165 70.313 223.231 45.775 197.902 74.269 173.758 52.107 111.224 58.044 175.303 107.654 162.28 155.011 197.109 124.536 226.793 100.789 224.461 64.782 248.165 70.313"/><g id="dana"><path class="cls-2" d="M197.10035,217.93606a9.119,9.119,0,0,1,9.07831-9.15746,11.689,11.689,0,0,1,4.77613,1.0658v-8.52592a2.80808,2.80808,0,0,0-1.02634-2.28919,8.9827,8.9827,0,0,0-3.47359-.86851v-.11837l7.06555-.3948.19728.19751v26.36666a2.28884,2.28884,0,0,0,1.02634,1.93408,5.9591,5.9591,0,0,0,2.32888.47371v.15806l-5.88138.35511-.19728-.19728v-2.013l-.15783-.03969c-.86851.908-2.80236,2.68423-5.28907,2.68423C200.81068,227.567,197.10035,223.85667,197.10035,217.93606Zm13.85444,6.43378V212.80459a5.06878,5.06878,0,0,0-4.934-3.78925c-3.31576,0-5.80247,3.8287-5.80247,9.3942,0,4.06567,1.93432,8.01275,6.35533,8.01275A5.67786,5.67786,0,0,0,210.95479,224.36984Z" transform="translate(-120.32737 -81.78225)"/><path class="cls-2" d="M218.92785,223.50132c0-3.23662,1.89485-4.26272,3.86815-5.01287a61.00936,61.00936,0,0,0,6.59161-2.52616l-.03946-2.684c0-2.09191-.51294-4.2235-3.552-4.2235a3.64929,3.64929,0,0,0-2.88174,1.18417c.03946.71045.31612,2.40779.31612,3.07879,0,.829-.7896,1.50005-1.93431,1.50005-.98688,0-1.342-.94743-1.342-1.85516,0-2.32888,2.99964-4.184,5.92084-4.184,3.67087,0,6.3154.82883,6.3154,5.84169,0,3.43414-.19728,7.539-.19728,8.84158,0,1.342.434,2.36833,1.69711,2.36833,1.14471,0,1.89439-1.10525,2.09167-3.27607h.23721c-.31612,3.63141-1.46037,4.85481-3.39468,4.85481a3.19124,3.19124,0,0,1-3.23685-2.64454h-.11837a7.7893,7.7893,0,0,1-5.84146,2.72368C220.70433,227.48808,218.92785,226.02749,218.92785,223.50132Zm10.30193.908.15783-8.0522c-.947.3948-1.81548.71045-2.60508,1.02634-3.15747,1.22363-4.85457,2.7629-4.85457,5.64441,0,2.17082.98641,3.47336,2.92073,3.47336A5.30224,5.30224,0,0,0,229.22978,224.40929Z" transform="translate(-120.32737 -81.78225)"/><path class="cls-2" d="M237.08493,226.93546a5.76641,5.76641,0,0,0,1.73657-.237,1.7322,1.7322,0,0,0,1.10525-1.81571V212.37056a2.61433,2.61433,0,0,0-1.0658-2.09214,4.156,4.156,0,0,0-1.93384-.63154v-.15782l5.56526-.43426.15783.15806V212.41h.07938c1.49982-1.4606,2.99964-3.63142,6.39432-3.63142,3.67087,0,5.32852,2.48671,5.32852,6.23649V224.725a1.8201,1.8201,0,0,0,1.0658,1.81571,4.67585,4.67585,0,0,0,1.73656.3948v.15782h-8.80211v-.15782a9.70726,9.70726,0,0,0,2.01322-.237,1.73079,1.73079,0,0,0,1.22363-1.81571v-10.4203c0-2.76291-1.81594-4.30242-3.74979-4.30242a6.22329,6.22329,0,0,0-5.28953,2.88151v11.64393a1.85825,1.85825,0,0,0,1.18417,1.81571,5.74063,5.74063,0,0,0,2.01322.43426v.15782h-8.76266Z" transform="translate(-120.32737 -81.78225)"/><path class="cls-2" d="M259.62265,223.50132c0-3.23662,1.89486-4.26272,3.86816-5.01287a61.00936,61.00936,0,0,0,6.59161-2.52616l-.03946-2.684c0-2.09191-.51294-4.2235-3.552-4.2235a3.64928,3.64928,0,0,0-2.88174,1.18417c.03946.71045.31612,2.40779.31612,3.07879,0,.829-.7896,1.50005-1.93431,1.50005-.98689,0-1.342-.94743-1.342-1.85516,0-2.32888,2.99965-4.184,5.92084-4.184,3.67088,0,6.31541.82883,6.31541,5.84169,0,3.43414-.19775,7.539-.19775,8.84158,0,1.342.43449,2.36833,1.69757,2.36833,1.14471,0,1.89439-1.10525,2.09214-3.27607h.23674c-.31612,3.63141-1.46036,4.85481-3.39467,4.85481a3.19123,3.19123,0,0,1-3.23685-2.64454h-.11837a7.7893,7.7893,0,0,1-5.84147,2.72368C261.39914,227.48808,259.62265,226.02749,259.62265,223.50132Zm10.30194.908.15783-8.0522c-.947.3948-1.81548.71045-2.60508,1.02634-3.15747,1.22363-4.85458,2.7629-4.85458,5.64441,0,2.17082.98642,3.47336,2.92073,3.47336A5.30224,5.30224,0,0,0,269.92459,224.40929Z" transform="translate(-120.32737 -81.78225)"/></g><g id="marin"><path class="cls-2" d="M205.47219,257.18315a7.34059,7.34059,0,0,0,1.69757-.237c.71022-.23674.94742-.671.94742-1.53928V242.34183a2.38182,2.38182,0,0,0-.908-2.13136,4.76572,4.76572,0,0,0-2.01322-.55263v-.237l8.48646-.47349.15782.15783V241.947h.11837c1.42091-1.49982,2.80237-3.23662,5.92084-3.23662a4.97474,4.97474,0,0,1,5.01287,3.31576h.15783c1.49982-1.579,2.99965-3.31576,6.27595-3.31576,3.55251,0,5.1707,2.52616,5.1707,6.197v10.30193c0,.86852.07891,1.38169.82906,1.65789a6.18339,6.18339,0,0,0,1.776.31588v.2762H228.72106v-.2762a3.9869,3.9869,0,0,0,1.46036-.31588c.51294-.2762.5524-.86829.5524-1.7368V244.78908c0-2.60508-.86805-3.74979-2.24951-3.74979a3.52422,3.52422,0,0,0-3.31576,1.7368v12.27547c0,.86851.11837,1.42091.67123,1.77625a3.2556,3.2556,0,0,0,1.38145.35534v.2762h-9.789v-.2762a3.27206,3.27206,0,0,0,1.4209-.31588c.51294-.2762.5524-.86829.5524-1.7368V244.94691c0-2.60508-.82859-3.82871-2.289-3.82871a3.64506,3.64506,0,0,0-3.27631,1.7368v12.35438c0,.86852.07892,1.38169.59232,1.61843a5.40148,5.40148,0,0,0,1.57874.35534v.2762H205.47219Z" transform="translate(-120.32737 -81.78225)"/><path class="cls-2" d="M239.97088,253.55174c0-3.35522,1.89439-4.38133,3.86816-5.09179,2.36834-.86851,5.56527-1.46059,6.55215-2.21051v-2.60507c0-1.342,0-4.53916-2.25-4.53916a3.27392,3.27392,0,0,0-2.13159.74991,16.96,16.96,0,0,1,.908,3.55251c0,.86828-1.18417,2.24973-3.23639,2.24973a2.613,2.613,0,0,1-2.84228-2.72345c0-2.44725,4.22374-4.2235,7.618-4.2235,4.22373,0,7.69686.671,7.69686,5.92084,0,3.59173-.23674,8.21-.23674,9.51257,0,.63154.43449,1.85516,1.42091,1.85516,1.18416,0,2.01322-1.46059,2.05268-3.78924h.47348c-.07892,3.31553-1.26308,5.76278-4.81512,5.76278a4.6159,4.6159,0,0,1-4.53939-2.56562h-.11837a6.7499,6.7499,0,0,1-5.64464,2.64453A4.5404,4.5404,0,0,1,239.97088,253.55174Zm10.30194,1.14471.15783-7.81547c-3.11848,1.22363-4.46048,2.25-4.46048,5.5655,0,2.52616.86852,3.513,1.97377,3.513A2.4775,2.4775,0,0,0,250.27282,254.69645Z" transform="translate(-120.32737 -81.78225)"/><path class="cls-2" d="M259.62733,257.18315a5.42134,5.42134,0,0,0,1.65811-.237c.74968-.2762.98689-.86828.98689-1.7368V242.22346a2.82485,2.82485,0,0,0-1.02635-2.09191,4.28363,4.28363,0,0,0-1.97376-.47371v-.237l8.56537-.47349.15783.15783v2.76291h.07891c1.57874-2.05245,3.19739-3.07879,5.09178-3.07879a3.35953,3.35953,0,0,1,3.43414,3.592,3.156,3.156,0,0,1-3.03957,3.39467c-1.69711,0-2.92073-.94742-2.92073-2.56585a8.81491,8.81491,0,0,1,.71069-2.64453,4.56784,4.56784,0,0,0-3.35522,2.09214v12.39384a1.731,1.731,0,0,0,1.06579,1.73679,10.18051,10.18051,0,0,0,2.60508.3948v.2762h-12.039Z" transform="translate(-120.32737 -81.78225)"/><path class="cls-2" d="M276.837,257.18315a5.50486,5.50486,0,0,0,1.69757-.237,1.68484,1.68484,0,0,0,1.02634-1.7368V242.14455a2.27818,2.27818,0,0,0-.98689-1.97354,5.95065,5.95065,0,0,0-2.32887-.51317v-.237l8.881-.47349.15783.15783v16.14363a1.5324,1.5324,0,0,0,.86851,1.65788,4.60739,4.60739,0,0,0,1.89439.27643v.2762H276.837Z" transform="translate(-120.32737 -81.78225)"/><path class="cls-2" d="M288.59929,257.18315a7.34051,7.34051,0,0,0,1.69757-.237c.71022-.23674.94743-.671.94743-1.53928V242.34183a2.38182,2.38182,0,0,0-.908-2.13136,4.76581,4.76581,0,0,0-2.01323-.55263v-.237l8.48646-.47349.15783.15783V241.947h.11837c1.42091-1.49982,2.72345-3.23662,6.03921-3.23662,3.86816,0,5.40744,2.44725,5.40744,6.197v10.34139c0,.86852.07891,1.34223.829,1.61843a7.53859,7.53859,0,0,0,1.776.31588v.2762H300.67771v-.2762a5.33712,5.33712,0,0,0,1.46036-.27643c.55286-.19728.59232-.86828.59232-1.73679V244.67071c0-2.72368-1.10525-3.55251-2.48671-3.55251a3.645,3.645,0,0,0-3.2763,1.7368v12.35438c0,.86852.07891,1.38169.59231,1.61843a5.40148,5.40148,0,0,0,1.57874.35534v.2762H288.59929Z" transform="translate(-120.32737 -81.78225)"/></g></svg>