<svg id="Layer_1" data-name="Layer 1" xmlns="http://www.w3.org/2000/svg" viewBox="0 0 322.017 245.1773"><defs><style>.cls-1{fill:#fff;}</style></defs><title>logo-white-dana</title><polygon id="origami" class="cls-1" points="322.017 46.104 275.169 0 227.581 53.537 182.218 11.898 64.727 23.052 185.122 116.261 160.653 205.237 226.091 147.979 281.862 103.362 277.482 35.712 322.017 46.104"/><g id="dana"><path class="cls-1" d="M197.97507,313.58083a17.133,17.133,0,0,1,17.05662-17.20532,21.96173,21.96173,0,0,1,8.97354,2.00246V282.35921a5.27589,5.27589,0,0,0-1.92832-4.301c-1.26026-.89-4.52384-1.48352-6.52629-1.63179V276.204l13.275-.74177.37066.3711v49.5385a4.30031,4.30031,0,0,0,1.92832,3.63381c.88959.5935,3.04031.81589,4.37557.89v.297l-11.05013.6672-.37066-.37067v-3.78207l-.29653-.07457c-1.63179,1.70593-5.26516,5.0432-9.93726,5.0432C204.94616,331.67574,197.97507,324.70466,197.97507,313.58083Zm26.03016,12.088V303.93966c-1.11286-3.26271-3.70838-7.11935-9.27007-7.11935-6.22976,0-10.90187,7.19348-10.90187,17.65011,0,7.63872,3.63425,15.0546,11.9406,15.0546C219.62966,329.525,221.92864,327.81954,224.00523,325.66882Z" transform="translate(-197.97507 -143.77357)"/><path class="cls-1" d="M238.98526,324.037c0-6.08106,3.56011-8.009,7.26762-9.41834,4.2273-1.63136,9.19594-2.96618,12.38451-4.74624l-.07413-5.04276c0-3.93034-.96372-7.93525-6.67368-7.93525a6.85646,6.85646,0,0,0-5.41431,2.22485c.07414,1.33483.59394,4.52384.59394,5.78453,0,1.55766-1.48353,2.81835-3.63425,2.81835-1.85419,0-2.52138-1.78005-2.52138-3.48554,0-4.37557,5.63583-7.86112,11.12426-7.86112,6.897,0,11.86559,1.55723,11.86559,10.97556,0,6.45216-.37067,14.16457-.37067,16.61182,0,2.52139.81546,4.44971,3.18858,4.44971,2.15072,0,3.55924-2.07659,3.9299-6.15519h.44567c-.59393,6.82282-2.74378,9.12137-6.378,9.12137-3.04031,0-5.1169-1.63136-6.0815-4.96864h-.2224a14.6348,14.6348,0,0,1-10.97512,5.11734C242.323,331.52748,238.98526,328.78326,238.98526,324.037Zm19.3556,1.70592.29653-15.12873c-1.77918.74176-3.411,1.33482-4.8945,1.92832-5.93236,2.299-9.12093,5.191-9.12093,10.60489,0,4.07861,1.85331,6.52586,5.48756,6.52586A9.962,9.962,0,0,0,258.34086,325.743Z" transform="translate(-197.97507 -143.77357)"/><path class="cls-1" d="M273.09937,330.48918a10.834,10.834,0,0,0,3.26271-.44523c1.40939-.44479,2.07658-1.77962,2.07658-3.41141V303.1242a4.9119,4.9119,0,0,0-2.00245-3.93077,7.80826,7.80826,0,0,0-3.63337-1.18656v-.29653l10.45619-.8159.29653.297v6.00692h.14914c2.81791-2.74421,5.63583-6.82282,12.01385-6.82282,6.897,0,10.0114,4.67211,10.0114,11.71732V326.336a3.41965,3.41965,0,0,0,2.00245,3.41141,8.785,8.785,0,0,0,3.26271.74176v.29654H294.45742v-.29654a18.23779,18.23779,0,0,0,3.78251-.44523,3.25186,3.25186,0,0,0,2.299-3.41141v-19.578c0-5.191-3.41185-8.08351-7.04522-8.08351a11.69255,11.69255,0,0,0-9.93814,5.41386v21.877a3.49131,3.49131,0,0,0,2.22485,3.41141,10.78573,10.78573,0,0,0,3.78251.81589v.29654H273.09937Z" transform="translate(-197.97507 -143.77357)"/><path class="cls-1" d="M315.44394,324.037c0-6.08106,3.56012-8.009,7.26762-9.41834,4.22731-1.63136,9.19594-2.96618,12.38452-4.74624l-.07414-5.04276c0-3.93034-.96372-7.93525-6.67368-7.93525a6.85642,6.85642,0,0,0-5.4143,2.22485c.07413,1.33483.59393,4.52384.59393,5.78453,0,1.55766-1.48352,2.81835-3.63424,2.81835-1.85419,0-2.52138-1.78005-2.52138-3.48554,0-4.37557,5.63582-7.86112,11.12426-7.86112,6.897,0,11.86558,1.55723,11.86558,10.97556,0,6.45216-.37153,14.16457-.37153,16.61182,0,2.52139.81633,4.44971,3.18945,4.44971,2.15072,0,3.55924-2.07659,3.93077-6.15519h.4448c-.59394,6.82282-2.74378,9.12137-6.378,9.12137-3.04031,0-5.1169-1.63136-6.08149-4.96864h-.2224a14.6348,14.6348,0,0,1-10.97512,5.11734C318.78166,331.52748,315.44394,328.78326,315.44394,324.037Zm19.35561,1.70592.29653-15.12873c-1.77919.74176-3.411,1.33482-4.8945,1.92832-5.93236,2.299-9.12094,5.191-9.12094,10.60489,0,4.07861,1.85332,6.52586,5.48756,6.52586A9.962,9.962,0,0,0,334.79955,325.743Z" transform="translate(-197.97507 -143.77357)"/></g><g id="marin"><path class="cls-1" d="M213.70434,387.31951a13.79251,13.79251,0,0,0,3.18945-.44523c1.33439-.4448,1.78005-1.26069,1.78005-2.892V359.43516c0-1.92832-.59393-3.26314-1.70592-4.00447a8.95394,8.95394,0,0,0-3.78251-1.03829v-.44523l15.94463-.8896.29653.29654v5.33929h.2224c2.66965-2.81791,5.26516-6.08106,11.12426-6.08106,4.6721,0,7.86068,2.22485,9.41833,6.22976h.29653c2.81792-2.96661,5.63583-6.22976,11.79145-6.22976,6.67457,0,9.71488,4.74624,9.71488,11.64319v19.3556c0,1.63179.14826,2.596,1.55765,3.11488a11.61757,11.61757,0,0,0,3.33685.5935v.51893H257.38505v-.51893a7.49061,7.49061,0,0,0,2.74378-.5935c.96372-.51892,1.03786-1.63135,1.03786-3.26314V364.03313c0-4.8945-1.63092-7.04522-4.22644-7.04522-3.41184,0-5.48843,1.70549-6.22976,3.26315V383.3146c0,1.63179.2224,2.66965,1.26113,3.33728a6.11676,6.11676,0,0,0,2.59552.66763v.51893H236.17526v-.51893a6.14782,6.14782,0,0,0,2.66965-.5935c.96372-.51892,1.03785-1.63135,1.03785-3.26314V364.32966c0-4.8945-1.55678-7.19348-4.30056-7.19348a6.84846,6.84846,0,0,0-6.15563,3.26314v23.21181c0,1.63179.14826,2.596,1.11286,3.04075a10.14857,10.14857,0,0,0,2.96618.66763v.51893H213.70434Z" transform="translate(-197.97507 -143.77357)"/><path class="cls-1" d="M278.52158,380.49669c0-6.30389,3.55924-8.23178,7.26762-9.5666,4.4497-1.63179,10.45619-2.74422,12.31038-4.15318v-4.8945c0-2.52138,0-8.5283-4.22732-8.5283a6.15107,6.15107,0,0,0-4.00489,1.409c.22327,1.18656,1.70592,4.37557,1.70592,6.67456,0,1.63135-2.22485,4.22687-6.08062,4.22687-3.85665,0-5.34017-2.66965-5.34017-5.1169,0-4.598,7.93568-7.93525,14.31283-7.93525,7.93569,0,14.46111,1.26069,14.46111,11.12426,0,6.74826-.4448,15.42527-.4448,17.87252,0,1.18655.81633,3.48554,2.66965,3.48554,2.22485,0,3.78251-2.74422,3.85664-7.11935h.88959c-.14826,6.22932-2.37311,10.82729-9.0468,10.82729-4.74623,0-7.04522-2.07659-8.52874-4.82037h-.2224c-2.44725,2.59552-4.82037,4.96864-10.60533,4.96864C282.45148,388.95087,278.52158,385.39119,278.52158,380.49669Zm19.3556,2.15072.29653-14.68394c-5.85909,2.299-8.38048,4.22731-8.38048,10.45663,0,4.74624,1.63179,6.60043,3.70838,6.60043A4.65477,4.65477,0,0,0,297.87718,382.64741Z" transform="translate(-197.97507 -143.77357)"/><path class="cls-1" d="M315.45273,387.31951a10.1863,10.1863,0,0,0,3.11531-.44523c1.40852-.51893,1.85419-1.63136,1.85419-3.26315V359.21277a5.30741,5.30741,0,0,0-1.92832-3.93034,8.048,8.048,0,0,0-3.70838-.89v-.44523l16.0929-.8896.29653.29654v5.191h.14826c2.96618-3.85621,6.00737-5.78453,9.5666-5.78453,3.70838,0,6.45216,2.67008,6.45216,6.74869,0,3.48554-2.299,6.378-5.71083,6.378-3.18858,0-5.48756-1.78-5.48756-4.8208,0-2.07615,1.11286-4.07861,1.33526-4.96863-3.18945.07413-5.71083,2.89248-6.30389,3.93077V383.3146a3.25223,3.25223,0,0,0,2.00245,3.26315,19.12795,19.12795,0,0,0,4.8945.74176v.51893H315.45273Z" transform="translate(-197.97507 -143.77357)"/><path class="cls-1" d="M347.78678,387.31951a10.34326,10.34326,0,0,0,3.18945-.44523,3.16551,3.16551,0,0,0,1.92832-3.26315V359.0645a4.28033,4.28033,0,0,0-1.85419-3.70794,11.18025,11.18025,0,0,0-4.37557-.96416v-.44523l16.686-.8896.29653.29654v30.33116c0,1.55765.29653,2.44768,1.63179,3.11488a8.65655,8.65655,0,0,0,3.55924.51936v.51893H347.78678Z" transform="translate(-197.97507 -143.77357)"/><path class="cls-1" d="M369.88616,387.31951a13.79243,13.79243,0,0,0,3.18945-.44523c1.33439-.4448,1.78006-1.26069,1.78006-2.892V359.43516c0-1.92832-.59394-3.26314-1.70593-4.00447a8.95394,8.95394,0,0,0-3.78251-1.03829v-.44523l15.94463-.8896.29653.29654v5.33929h.2224c2.66965-2.81791,5.1169-6.08106,11.34666-6.08106,7.26762,0,10.15966,4.598,10.15966,11.64319v19.42974c0,1.63179.14827,2.52182,1.55766,3.04074a14.16332,14.16332,0,0,0,3.33684.5935v.51893H392.57948v-.51893a10.02841,10.02841,0,0,0,2.74378-.51936c1.03873-.37067,1.11286-1.63136,1.11286-3.26315V363.81074c0-5.11734-2.07659-6.67456-4.6721-6.67456a6.84846,6.84846,0,0,0-6.15563,3.26314v23.21181c0,1.63179.14827,2.596,1.11286,3.04075a10.14857,10.14857,0,0,0,2.96618.66763v.51893H369.88616Z" transform="translate(-197.97507 -143.77357)"/></g></svg>