<svg id="Layer_1" data-name="Layer 1" xmlns="http://www.w3.org/2000/svg" viewBox="0 0 24 30.00054"><defs><style>.cls-1{fill:#fff;}</style></defs><title>social-pinterest</title><path class="cls-1" d="M389.00793,321.10588a.23968.23968,0,0,0,.4238.09961,18.23479,18.23479,0,0,0,3.21521-5.6387c.218-.76761,1.2514-4.7363,1.2514-4.7363a5.155,5.155,0,0,0,4.3515,2.14651c5.724,0,9.6073-5.0488,9.6073-11.80868,0-5.1113-4.4747-9.8711-11.2745-9.8711-8.4588,0-12.7255,5.8692-12.7255,10.76371,0,2.96289,1.16049,5.59961,3.64508,6.584a.61671.61671,0,0,0,.89209-.43161c.08283-.30279.27649-1.06451.3653-1.3848a.82027.82027,0,0,0-.25629-.959,4.86409,4.86409,0,0,1-1.17669-3.37891c0-4.3555,3.36859-8.2539,8.7677-8.2539,4.78131,0,7.40921,2.82809,7.40921,6.60348,0,4.96881-2.27262,9.1622-5.64319,9.1622a2.69433,2.69433,0,0,1-2.8136-3.31839c.53689-2.18359,1.57431-4.53909,1.57431-6.11529a2.337,2.337,0,0,0-2.4018-2.58591c-1.9053,0-3.43521,1.90619-3.43521,4.459a6.45315,6.45315,0,0,0,.56922,2.72848s-1.94971,7.98831-2.2908,9.3887A18.73866,18.73866,0,0,0,389.00793,321.10588Z" transform="translate(-383.85714 -291.29722)"/></svg>