<svg id="Layer_1" data-name="Layer 1" xmlns="http://www.w3.org/2000/svg" viewBox="0 0 24.00004 29.99998"><defs><style>.cls-1{fill:#fff;}</style></defs><title>social-github</title><path id="path9-5" class="cls-1" d="M949.39145,538.52951a10.132,10.132,0,0,0,.5292,1.2064c1.2236,2.2197,3.5816,3.6,7.5602,3.981a3.40231,3.40231,0,0,0-1.3446,2.1941,4.38326,4.38326,0,0,1-3.2654.2619c-1.5643-.4939-2.163-3.5884-4.50488-3.1473-.50672.095-.40612.4295.03208.7136a4.5976,4.5976,0,0,1,1.9033,2.269,3.8418,3.8418,0,0,0,3.8815,2.6305,11.61237,11.61237,0,0,0,1.7853-.1269s.01982,2.4103.01982,3.3471c0,1.0814-1.45952,1.3856-1.45952,1.9052,0,.2054.48352.2248.8714.2248.76712,0,2.3628-.6403,2.3628-1.7631,0-.8917.0146-3.8923.0146-4.4171a1.68981,1.68981,0,0,1,.6153-1.5106s.0761,6.1249-.1467,6.9463c-.2622.9651-.735.8281-.735,1.259,0,.6411,1.9212.1565,2.5582-1.2495.4918-1.0944.2767-7.1031.2767-7.1031l.5248-.0111s.0296,2.7505.01142,4.0085c-.01842,1.3022-.107,2.9487.66668,3.7251.5084.5103,2.1556,1.4071,2.1556.5878,0-.4757-.9025-.8662-.9025-2.1533v-5.9252c.72122,0,.6127,1.9475.6127,1.9475l.0524,3.6208a1.84409,1.84409,0,0,0,1.4279,1.8698c.56022.1967,1.7563.2483,1.8133-.0791.0567-.3291-1.44208-.8186-1.4559-1.8406-.00918-.622.0282-.9858.0282-3.6932s-.3642-3.7077-1.632-4.505c3.911-.4012,6.3327-1.369,7.512-3.9587a4.10052,4.10052,0,0,0,.4303-1.2096,14.59619,14.59619,0,0,0,.43532-3.5042,7.92853,7.92853,0,0,0-2.12642-5.6453c.5035-2.8131-.08458-4.0917-.3575-4.5311-1.00808-.3582-3.5062.9219-4.872,1.8232-2.224-.6497-6.92808-.5877-8.69208.1676-3.25462-2.3294-4.97682-1.9724-4.97682-1.9724a6.85485,6.85485,0,0,0-.294,4.9105,6.60072,6.60072,0,0,0-1.869,4.8875,12.03886,12.03886,0,0,0,.5533,3.8592Z" transform="translate(-948.02593 -524.79223)"/></svg>