<svg id="Layer_1" data-name="Layer 1" xmlns="http://www.w3.org/2000/svg" viewBox="0 0 30 30"><defs><style>.cls-1{fill:#fff;}</style></defs><title>social-instagram</title><path class="cls-1" d="M405.05835,291.30827h-18.4043a5.80235,5.80235,0,0,0-5.79691,5.79691v18.40619a5.80235,5.80235,0,0,0,5.79691,5.7969h18.4043a5.804,5.804,0,0,0,5.79879-5.7969V297.10515A5.804,5.804,0,0,0,405.05835,291.30827Zm1.66409,3.459.66211-.00391v5.084l-5.06641.01749-.01761-5.08389Zm-15.14652,8.46289a5.269,5.269,0,1,1-1,3.07809,5.269,5.269,0,0,1,1-3.07809Zm16.35932,12.28119a2.879,2.879,0,0,1-2.87689,2.875h-18.4043a2.87738,2.87738,0,0,1-2.875-2.875V303.23015h4.47848a8.20406,8.20406,0,1,0,15.1973,0h4.48041Z" transform="translate(-380.85714 -291.30827)"/></svg>